<svg xmlns="http://www.w3.org/2000/svg" viewBox="0 0 874.2 995.13"><defs><style>.cls-1,.cls-2,.cls-3{stroke:#fff;}.cls-1,.cls-2,.cls-3,.cls-5{stroke-miterlimit:10;}.cls-1{stroke-width:20px;}.cls-2,.cls-3{fill:#fff;}.cls-2{stroke-width:0.67px;}.cls-3{stroke-width:0.77px;}.cls-4{fill:#d91c5c;}.cls-5,.cls-6{fill:none;}.cls-5{stroke:#d91c5c;stroke-width:31.8px;}</style></defs><g id="Layer_2" data-name="Layer 2"><g id="Layer_1-2" data-name="Layer 1"><path class="cls-1" d="M422.9,982.64l-404-238.9a18.16,18.16,0,0,1-8.9-15.9l4.9-469.3a18.29,18.29,0,0,1,9.3-15.7L433.1,12.34a18.21,18.21,0,0,1,18.2.2l404,238.9a18.16,18.16,0,0,1,8.9,15.9l-4.9,469.3a18.29,18.29,0,0,1-9.3,15.7L441.1,982.74A18.2,18.2,0,0,1,422.9,982.64Z"></path><path class="cls-2" d="M215.5,517.14c0-126.4,102.5-228.9,228.9-228.9s228.9,102.5,228.9,228.9"></path><path class="cls-3" d="M450.2,557.14c.5.2,1,.4,1.4.6,15.7-.2,31.3,5.5,45.6,11.4,9.1,3.8,18.2,7.8,27.2,11.8.4.2.7.3.9.4l2.1.9c1.9.8,3.8,1.5,5.8,2.2,3.4,1.3,6.9,2.4,10.4,3.4,36,10.3,72.8,17.2,109,26.6a229.16,229.16,0,0,0,21.6-97.3c0-126.9-102.9-229.7-229.7-229.7-122.4,0-222.4,95.7-229.3,216.3a449.87,449.87,0,0,1,44.9,3.4C325.4,515.24,388.7,533.84,450.2,557.14Z"></path><path class="cls-4" d="M816.3,657.84c.2-10.6.6-21,1.5-31.5a271.8,271.8,0,0,1-75.4-11.4c-42.9-12.5-84.8-26.6-126.4-41.5-81.2-29.2-161.8-59.2-251.6-71-91.9-12.1-174.7.5-246.6,47.2-24.4,15.9-51.9,31.9-51.8,61.8,12.7-10.2,25.6-20.3,38.1-30.7,26.2-21.8,60-32.2,95.7-39.6,102.5-21.2,197,2.9,289.7,33.2,83.4,27.2,163.9,60,251.6,78.6,24.5,5.2,49.3,8.4,75.1,7.2A19.3,19.3,0,0,0,816.3,657.84Z"></path><path d="M461.2,418.94c-24.3.9-45,9.7-61.8,27.5-2,2.1-2.1,3.8-.9,6.5,6,13.6,1.9,25.9-5.6,37.5a4.43,4.43,0,0,1-3.7,1.4,3.68,3.68,0,0,1-2.4-2.7c-.5-3.5-2.7-5.4-5.4-7-3-1.9-6.5-3.4-8.8-5.9-3.8-4-7.7-6.7-13.5-7-3.8-.2-7.4-2.5-11.2-3.5s-7.3-.7-10,2.6c-1.4,1.7-3.1,3.5-5.1,1.6-1-1-1.4-3.7-.9-5.1,6.7-17.2,18.7-27.8,37.5-29.9,2.6-.3,3.9-1.2,4.6-3.7,3.3-11.8,9.1-22.5,16.1-32.5,11.9-17,27-31,44.1-42.7,2.9-2,3.3-3.5,1.8-6.5-4.9-9.9-9.6-19.9-14.4-29.8-2-4.3-.6-6.7,3.9-6.2,6.5.8,13.2,1.6,19.5,3.5,15.3,4.6,28.3,13.4,39.8,24.4a13.28,13.28,0,0,0,6,3.1c5.6,1.4,11.3,2.2,16.9,3.5,15.9,3.6,30.7,9.6,43.6,19.8,19.7,15.7,29.4,36,27.6,61.3-1,13.3-11.8,20.3-24.3,15.6-5.4-2-10.5-4.9-15.7-7.2-8.6-3.7-17.2-7.3-25.8-10.9a6.76,6.76,0,0,0-7.5,1.1,29.13,29.13,0,0,1-7.3,4.1c-12.7,5-26.1,5.3-39.5,4.7-2-.1-3.9-1.3-5.8-2,.8-2,1.5-4.1,2.4-6.1.2-.5.8-.9,1.2-1.4,1.9-2.5,3.8-4.9,5.7-7.5A11.71,11.71,0,0,1,461.2,418.94Zm-67.5,20.6c18.2-19.6,41-28,67.4-28a14,14,0,0,0,2.9,0,3.77,3.77,0,0,0,2.1-1c.2-.3-.2-1.5-.7-1.9-12.9-12.5-33-22.9-52.8-10.7a35.26,35.26,0,0,0-14.7,17c-2.9,7.5-4.8,15.4-7.1,23.1a15.81,15.81,0,0,0-.3,3.7C392,440.64,393,440.24,393.7,439.54ZM543,412.14c3.5,1.4,7.4,3.6,10.7.5s2.7-7.7,1.5-11.8c-3.1-11.1-11.5-16.9-21.8-20.4a25.81,25.81,0,0,0-8.2-1.5c-6.3,0-9.1,3.8-7.6,10a23.4,23.4,0,0,0,9.1,13.4c5,3.7,10.5,6.8,15.7,10.1.1-.1.2-.3.3-.4A.37.37,0,0,0,543,412.14Z"></path><path class="cls-5" d="M427.4,917.34,75,708.94A15.85,15.85,0,0,1,67.2,695l4.3-409.4a15.9,15.9,0,0,1,8.1-13.7l356.7-201a15.86,15.86,0,0,1,15.9.2l352.4,208.4a15.85,15.85,0,0,1,7.8,13.9l-4.3,409.4a15.9,15.9,0,0,1-8.1,13.7l-356.7,201A16.1,16.1,0,0,1,427.4,917.34Z"></path><path class="cls-4" d="M186.74,761.49c-1.66.22-3.34.4-5,.55a120.44,120.44,0,0,1-18-.3,118.53,118.53,0,0,1-17.8-3.2,113.15,113.15,0,0,1-16.7-5.7,106,106,0,0,1-14.9-8,87.59,87.59,0,0,1-12.2-9.9,74,74,0,0,1-9.3-11.1A76,76,0,0,1,86.3,712c-6.7-16.2-6.4-33.1-1.1-49.1s16-31.4,31.2-44.7,34.7-24.3,56.1-32.4,44.6-13.5,67.8-16.6a408.14,408.14,0,0,1,69.7-3.1c5.8.3,11.5.6,17.1,1l8.5.8,8.4.9a299,299,0,0,1,33,5.6c-11.2,1.4-22.2,2.7-33,4.1-2.7.4-5.4.7-8.1,1.1l-8,1.1c-5.3.7-10.6,1.5-15.8,2.4-20.9,3.3-41.1,7.2-60.1,12.2a321,321,0,0,0-52.6,18.1c-15.8,7.2-29.5,15.6-40.7,25.3A100.72,100.72,0,0,0,133.4,671c-5.6,11.7-8.3,24-6.7,36a54.24,54.24,0,0,0,1.9,8.9,58.66,58.66,0,0,0,3.7,8.6,54.89,54.89,0,0,0,5.7,8.2,63.16,63.16,0,0,0,7.9,7.5A77.31,77.31,0,0,0,156,747a98.14,98.14,0,0,0,12.2,5.7,107.86,107.86,0,0,0,14.2,4.2c1.43.31,2.87.58,4.33.83"></path><path class="cls-4" d="M334.3,718.34c-11.6,5.1-27.1,6.9-42.1,5.3a90.49,90.49,0,0,1-22-5.2,66,66,0,0,1-18.5-10.7c-10.2-8.7-15.3-19.8-14.5-31.2a34.13,34.13,0,0,1,6.1-16.9,47.92,47.92,0,0,1,6.6-7.8,70,70,0,0,1,8.3-6.8,101.26,101.26,0,0,1,19.8-10.6c3.5-1.5,7.1-2.8,10.8-4s7.4-2.3,11.1-3.2l5.6-1.4c1.9-.5,3.8-.8,5.7-1.2,3.8-.8,7.6-1.4,11.5-2,7.7-1.1,15.5-2,23.2-2.4a318.5,318.5,0,0,1,45.9.8,378,378,0,0,1,43.6,6.4c27.9,5.7,53.5,13.6,77.8,21.4,12.2,3.9,24.1,7.8,35.9,11.6s23.8,7.3,35.8,10.7q36.3,10.35,74.1,19c12.6,2.9,25.4,5.8,38.3,8.5s26,5.4,39.2,8.1c-13.8,1-27.6,1.3-41.5,1.2s-27.7-.7-41.6-1.5a771.85,771.85,0,0,1-82.2-10c-13.5-2.4-26.9-5.2-40.1-8.3s-26-6.4-38.5-9.8c-25.1-6.7-49.1-13.3-73-18.1-23.6-4.7-47.7-7.6-70.8-7.3a203.71,203.71,0,0,0-33.6,3.1c-10.7,1.9-20.5,4.8-28.1,8.7-1.9,1-3.6,2-5.3,3.1a37.9,37.9,0,0,0-4.3,3.4,22.1,22.1,0,0,0-5.7,8.2,21.62,21.62,0,0,0,2.1,19.6,30.63,30.63,0,0,0,8.8,8.8,54.55,54.55,0,0,0,13.9,6.8A97.13,97.13,0,0,0,334.3,718.34Z"></path><path class="cls-4" d="M585.1,833.84a17.39,17.39,0,0,1,1.8-1.1c11.2-5.4,22.5-10.8,33.7-16.3-14,.7-27.9,1-41.6.8-29.2-.4-57.8-2.9-84.7-8.4s-53-13.9-78.7-23.5c-12.9-4.8-25.7-9.9-38.7-15.1-3.3-1.3-6.5-2.6-9.8-3.9s-6.5-2.6-9.9-3.9-6.6-2.6-10-3.8l-2.5-.9c-.5-.2-.8-.3-1.1-.4a4.67,4.67,0,0,1-1-.5,7.38,7.38,0,0,1-1.6-1.2,1.14,1.14,0,0,1-.3-.8,1,1,0,0,1,.5-.8,2.92,2.92,0,0,0-1.2.7,1.5,1.5,0,0,0-.4,1.1,3.68,3.68,0,0,0,.8,2.1c.2.3.5.6.8,1a7.64,7.64,0,0,1,.9.9l1.8,1.5c2.4,2,4.7,4,7.2,6s4.9,3.9,7.5,5.8,5.1,3.8,7.8,5.7a333.22,333.22,0,0,0,34.1,21,307.25,307.25,0,0,0,39.3,17.6A303.79,303.79,0,0,0,484.4,830a320.68,320.68,0,0,0,48.1,5.7,353,353,0,0,0,48.3-1.2A27.58,27.58,0,0,1,585.1,833.84Z"></path><path class="cls-4" d="M593.2,770l7.4.6,14.9,1.2a860.13,860.13,0,0,0,88,1.1q9.6-5.55,19.2-11.4c12.1-7.4,23.9-15.1,35.5-23.3-9.8,1.3-19.7,2.5-29.6,3.6a1039.56,1039.56,0,0,1-110.6,5.4l-14-.2-7-.1-7-.3-14-.5c-4.7-.2-9.3-.5-14-.8-9.4-.4-18.6-1.3-27.9-2s-18.5-1.7-27.6-2.9-18.1-2.5-26.9-4.2-17.4-3.8-25.8-6.2c-2.1-.6-4.2-1.2-6.2-1.9l-6.1-2.1-5.9-2.3c-1-.4-2-.8-2.9-1.2l-2.9-1.3a130.79,130.79,0,0,1-21.1-11.9c7.9,10.9,21.4,20.6,37.6,28a214.57,214.57,0,0,0,25.5,10c8.9,2.9,18.1,5.4,27.5,7.7s18.9,4.2,28.4,5.9,19.1,3.4,28.8,4.6c4.9.7,9.7,1.4,14.6,2l14.7,1.6Z"></path><line class="cls-6" x1="527.7" y1="761.14" x2="237.2" y2="676.44"></line></g></g></svg>